<?xml version="1.0" encoding="UTF-8"?>
<svg id="Layer_2" data-name="Layer 2" xmlns="http://www.w3.org/2000/svg" viewBox="0 0 1114.23 100.02">
  <defs>
    <style>
      .cls-1 {
        fill: #231f20;
      }
    </style>
  </defs>
  <g id="Layer_1-2" data-name="Layer 1">
    <g>
      <path class="cls-1" d="M916.83,1.06c2.84.8,25.16,36.95,29,41.98,1.72.13,2.42-1.58,3.32-2.68,3.91-4.82,23.31-39.3,25.66-39.3h21.49v96.92h-25.99v-49.96c-3.68,2.87-21.28,28.01-23.48,28.04-2.66.04-20.16-25.37-24.5-28.04v49.96h-25.99V1.06c5.43.97,15.78-1.32,20.49,0Z"/>
      <path class="cls-1" d="M326.43.35c72.8-7.23,73.74,98.98,6.66,99.66-64.15.65-68.07-93.56-6.66-99.66ZM327.37,26.28c-24.68,4.19-22.22,48.11,5.66,47.61,30.57-.54,28.63-53.44-5.66-47.61Z"/>
      <path class="cls-1" d="M617.49,1.06v60.45c0,7.41,8.45,13.35,15.54,13.52,6.03.14,15.45-5.07,15.45-11.52V2.56c0-.11,1.39-1.5,1.5-1.5h26.99c.11,0,1.5,1.39,1.5,1.5v58.95c0,24.12-22.47,38.31-44.52,38.51-20.91.18-45.43-12.76-45.43-36.51V2.56c0-.11,1.39-1.5,1.5-1.5h27.49Z"/>
      <path class="cls-1" d="M514.54,1.06v37.97c1.87.42,1.94-.62,2.83-1.66,9.66-11.27,16.94-25,26.65-36.3h30.48l-33.84,46.29,40.84,50.63h-34.98c-8.04-11.58-16.95-23.45-26.03-34.43-1.57-1.9-3.53-5.43-5.95-5.54v39.97h-26.99V2.56c0-.11,1.39-1.5,1.5-1.5h25.49Z"/>
      <path class="cls-1" d="M1114.23,97.98h-25.49c-2.31-1.49-4.43-11.06-5.66-11.83-2.88-1.8-35.97.9-42.16,0-3.02,1.03-4.99,11.83-5.66,11.83h-26.99l41.47-95.93c1.19-1.44,21.25-1.57,23.5-.5,1.01.48,1.69,1.82,2.19,2.81l38.31,90.6.48,3.02ZM1049.26,64.01h24.99c-4.17-9.1-7.28-18.93-11.55-27.97-.55-1.18.14-2.44-1.94-2.01l-11.5,29.98Z"/>
      <path class="cls-1" d="M85.76,97.98L126.91,1.23l22.37-.24,42.44,96.99h-26.99c-.81-2.27-4.2-11.37-5.63-11.86-5.35.39-41.17-1.22-42.45.48-1.99,2.65-2.88,8.67-5.39,11.37h-25.49ZM150.73,64.01l-12.01-29.97c-1.4.09-1.55,1.51-2.02,2.46-4.4,8.68-7.17,18.54-10.96,27.51h24.99Z"/>
      <path class="cls-1" d="M883.35,97.98h-25.49c-1.62,0-4.68-10.98-7.16-11.83-5.33.42-41.23-1.33-42.43.43s-3.2,8.86-3.88,11.4h-26.99L819.37,1.55c1.76-1.06,22.16-.92,23.53.48l40.45,95.95ZM817.38,64.01h25.99c-3.2-3.23-10.95-29.51-12.5-29.98-1.96-.6-1.44.99-1.93,2.01-4.24,8.89-7.08,19.1-11.55,27.97Z"/>
      <path class="cls-1" d="M726.22.35c16.24-1.62,32.81,3.47,45.09,14.19l-13.4,18.47c-5.56-7.18-27.64-17.14-34.5-9.5-10.28,11.45,20.69,15.03,27.27,17.75,17.08,7.04,26.82,22.53,18.13,40.63-12.68,26.42-57.54,19.05-76.3,3.45-.67-2.27,9.75-16.28,11.57-19.29,8.12,3.34,14.91,8.94,24.13,10.66,6.73,1.26,20.35,1.78,17.02-9.02-1.6-5.19-22.37-8.34-27.75-10.22-33.95-11.92-28.29-53.42,8.75-57.12Z"/>
      <path class="cls-1" d="M29.29,1.06l18.99,40.98L68.27,1.06h29.48l-48.97,96.92h-29.98l13.94-27.48L.24,3.1c-.87-.62.95-2.04,1.07-2.04h27.99Z"/>
      <polygon class="cls-1" points="212.2 1.06 232.18 41.03 252.18 1.06 281.66 1.06 231.19 97.98 202.7 97.98 214.95 73.72 215.53 69.76 184.17 4.09 183.71 1.06 212.2 1.06"/>
      <path class="cls-1" d="M428.58,1.06v96.92h-27.99V3.56c0-.16-1.73-2.5.5-2.5h27.49Z"/>
    </g>
  </g>
</svg>